HIERARCHY
ROOT SpineBase
{
  OFFSET 0.000000 0.000000 0.000000
  CHANNELS 6 Xposition Yposition Zposition Zrotation Xrotation Yrotation
  JOINT SpineMid
  {
    OFFSET 0.000000 31.131244 0.000000
    CHANNELS 3 Zrotation Xrotation Yrotation
    JOINT SpineShoulder
    {
      OFFSET 0.294930 23.163439 -0.820386
      CHANNELS 3 Zrotation Xrotation Yrotation
      JOINT Neck
      {
        OFFSET 0.156789 7.680628 -0.582812
        CHANNELS 3 Zrotation Xrotation Yrotation
        JOINT Head
        {
          OFFSET -2.714128 13.507878 1.646447
          CHANNELS 3 Zrotation Xrotation Yrotation
          End Site
          {
            OFFSET 0 0 0
          }
        }
      }
      JOINT ShoulderLeft
      {
        OFFSET -15.081614 -2.817706 8.421411
        CHANNELS 3 Zrotation Xrotation Yrotation
        JOINT ElbowLeft
        {
          OFFSET -6.137900 -27.052015 2.805348
          CHANNELS 3 Zrotation Xrotation Yrotation
          JOINT WristLeft
          {
            OFFSET -3.096779 -19.042215 -10.100373
            CHANNELS 3 Zrotation Xrotation Yrotation
            JOINT HandLeft
            {
              OFFSET -1.347317 -6.196551 -2.490592
              CHANNELS 3 Zrotation Xrotation Yrotation
              JOINT HandTipLeft
              {
                OFFSET -1.081183 -8.558874 -1.231880
                CHANNELS 3 Zrotation Xrotation Yrotation
                End Site
                {
                  OFFSET 0 0 0
                }
              }
              JOINT ThumbLeft
              {
                OFFSET -2.064943 1.344626 -2.914053
                CHANNELS 3 Zrotation Xrotation Yrotation
                End Site
                {
                  OFFSET 0 0 0
                }
              }
            }
          }
        }
      }
      JOINT ShoulderRight
      {
        OFFSET 13.447244 -3.213793 -7.756880
        CHANNELS 3 Zrotation Xrotation Yrotation
        JOINT ElbowRight
        {
          OFFSET 7.997415 -26.971406 -4.906313
          CHANNELS 3 Zrotation Xrotation Yrotation
          JOINT WristRight
          {
            OFFSET -0.635433 -19.668784 -9.470256
            CHANNELS 3 Zrotation Xrotation Yrotation
            JOINT HandRight
            {
              OFFSET -1.781485 -6.527452 -2.596754
              CHANNELS 3 Zrotation Xrotation Yrotation
              JOINT HandTipRight
              {
                OFFSET -0.743846 -7.820112 -1.741754
                CHANNELS 3 Zrotation Xrotation Yrotation
                End Site
                {
                  OFFSET 0 0 0
                }
              }
              JOINT ThumbRight
              {
                OFFSET -3.655086 -1.897319 0.930864
                CHANNELS 3 Zrotation Xrotation Yrotation
                End Site
                {
                  OFFSET 0 0 0
                }
              }
            }
          }
        }
      }
    }
  }
  JOINT HipLeft
  {
    OFFSET -6.727721 0.086091 -0.577155
    CHANNELS 3 Zrotation Xrotation Yrotation
    JOINT KneeLeft
    {
      OFFSET 1.632250 -37.873206 6.111699
      CHANNELS 3 Zrotation Xrotation Yrotation
      JOINT AnkleLeft
      {
        OFFSET 4.639898 -36.600863 11.900166
        CHANNELS 3 Zrotation Xrotation Yrotation
        JOINT FootLeft
        {
          OFFSET -3.367908 -7.762007 -5.363304
          CHANNELS 3 Zrotation Xrotation Yrotation
          End Site
          {
            OFFSET 0 0 0
          }
        }
      }
    }
  }
  JOINT HipRight
  {
    OFFSET 6.972888 1.746903 -6.438849
    CHANNELS 3 Zrotation Xrotation Yrotation
    JOINT KneeRight
    {
      OFFSET 5.704837 -33.208340 -3.034148
      CHANNELS 3 Zrotation Xrotation Yrotation
      JOINT AnkleRight
      {
        OFFSET 3.914239 -41.006533 10.644383
        CHANNELS 3 Zrotation Xrotation Yrotation
        JOINT FootRight
        {
          OFFSET -1.431274 -7.982592 -6.237234
          CHANNELS 3 Zrotation Xrotation Yrotation
          End Site
          {
            OFFSET 0 0 0
          }
        }
      }
    }
  }
}
MOTION
Frames: 5
Frame Time: 0.033333
-9.880951 84.486246 335.891886 -4.614314 0.121986 28.019661 0.990507 -0.633001 -28.134076 0.434282 0.542262 -0.103232 -1.771732 -3.150544 0.166135 0.000000 0.000000 0.000000 -9.685085 21.961268 -3.815131 47.127781 31.986435 -20.550073 5.758379 -14.127584 9.452956 11.666457 22.904368 2.625110 0.000000 0.000000 0.000000 0.000000 0.000000 0.000000 -10.153672 12.136287 7.884245 -63.589652 -5.558421 21.008217 -21.320911 -9.424742 -12.873777 7.541877 14.431152 -8.741945 0.000000 0.000000 0.000000 0.000000 0.000000 0.000000 1.131905 13.406635 -28.733551 -2.043109 -0.735972 -1.737981 10.489637 -1.036412 0.298108 0.000000 0.000000 0.000000 -0.115999 -4.657052 -28.652953 2.925041 1.893631 0.258731 -5.259838 -2.860530 4.896448 0.000000 0.000000 0.000000
-10.084887 84.727269 335.640087 -4.021214 0.638277 28.514938 1.209438 -0.508968 -28.581297 0.521728 0.554675 -0.073407 -4.660710 -4.407086 0.095318 0.000000 0.000000 0.000000 -10.836025 30.150438 -5.098231 61.207302 29.505514 -23.126867 13.961304 -17.212335 20.007410 14.688252 23.060612 3.208032 0.000000 0.000000 0.000000 0.000000 0.000000 0.000000 -16.194843 12.145679 9.613417 -65.938914 -5.638908 22.422612 -11.990247 -14.385551 -20.538779 -1.864449 9.793986 -9.906975 0.000000 0.000000 0.000000 0.000000 0.000000 0.000000 0.403108 13.847898 -29.259653 -3.429938 0.592102 -2.089772 12.515436 -2.202363 0.699564 0.000000 0.000000 0.000000 -1.276497 -5.199768 -29.267051 3.373503 2.360040 0.374794 -5.229107 -2.462495 4.477628 0.000000 0.000000 0.000000
-10.504022 85.004743 335.325879 -3.371078 1.245754 28.784606 1.316282 -0.393451 -28.811710 0.570861 0.447474 -0.046356 -7.012270 -5.186267 0.037760 0.000000 0.000000 0.000000 -10.402259 37.659191 -6.647010 72.705398 26.254139 -22.876376 33.506958 -16.976816 42.367130 12.650424 25.335877 -3.481240 0.000000 0.000000 0.000000 0.000000 0.000000 0.000000 -21.519797 11.674055 10.873902 -68.245931 -4.977135 25.011709 3.517411 -20.098396 -26.354565 -16.094399 1.529480 -10.535405 0.000000 0.000000 0.000000 0.000000 0.000000 0.000000 -0.298263 13.841181 -29.545968 -4.326047 1.449137 -2.274537 12.267526 0.713602 0.101167 0.000000 0.000000 0.000000 -2.206667 -5.955785 -29.686642 3.433737 2.794048 0.524168 -5.352931 -2.004252 4.213061 0.000000 0.000000 0.000000
-11.115196 85.339210 334.986259 -2.688870 1.908474 29.070533 1.384870 -0.306339 -29.066441 0.589209 0.260207 -0.018598 -9.310292 -5.662273 0.008949 0.000000 0.000000 0.000000 -8.631138 44.038707 -8.649644 79.813901 23.110498 -19.618045 60.926389 -3.517904 76.764351 -2.740722 43.543230 -28.519023 0.000000 0.000000 0.000000 0.000000 0.000000 0.000000 -25.514181 11.287383 11.704720 -70.583799 -3.902116 27.879410 13.046818 -28.474536 -31.745089 -25.894210 -6.662511 -13.196968 0.000000 0.000000 0.000000 0.000000 0.000000 0.000000 -0.823304 13.653460 -29.841705 -5.283262 2.164056 -2.476055 14.934398 -1.614155 0.084593 0.000000 0.000000 0.000000 -2.921893 -6.841581 -30.136619 3.130166 3.161510 0.692812 -5.556829 -1.461222 4.073455 0.000000 0.000000 0.000000
-11.821142 85.682799 334.666241 -2.030995 2.564569 29.909500 1.378978 -0.226301 -29.887810 0.567198 0.120880 0.003186 -10.804582 -5.926896 -0.006751 0.000000 0.000000 0.000000 -6.050543 48.520902 -10.890216 83.470289 20.777985 -15.682158 68.284185 5.090532 103.301195 12.070279 55.155164 -59.487903 0.000000 0.000000 0.000000 0.000000 0.000000 0.000000 -28.337031 11.076304 12.279459 -71.819155 -2.857585 29.769053 9.206853 -34.723490 -38.639184 -28.733907 -8.075747 -13.808545 0.000000 0.000000 0.000000 0.000000 0.000000 0.000000 -1.011603 13.375338 -30.697563 -5.993292 2.418920 -2.655729 14.666507 1.977968 -1.162588 0.000000 0.000000 0.000000 -3.443486 -8.135757 -31.226747 1.980080 3.866916 0.903335 -5.029833 -1.421992 3.810014 0.000000 0.000000 0.000000
